<svg width="537" height="395" viewBox="0 0 537 395" fill="none" xmlns="http://www.w3.org/2000/svg">
<path d="M27.4444 346.054V356.264H41.1982V363.772H27.4444V374.192H45.4024V382H17.2342V338.246H45.4024V346.054H27.4444ZM88.4799 382H79.531C78.8703 382 78.3298 381.84 77.9094 381.52C77.509 381.199 77.1887 380.819 76.9484 380.378L71.3929 370.829C71.2928 371.169 71.1726 371.489 71.0325 371.79C70.8924 372.09 70.7422 372.37 70.5821 372.631L66.0175 380.378C65.7372 380.779 65.4069 381.149 65.0265 381.489C64.6461 381.83 64.1556 382 63.555 382H55.2668L65.7172 365.904L55.6872 350.859H64.6361C65.2968 350.859 65.7773 350.949 66.0776 351.129C66.3979 351.289 66.6782 351.57 66.9184 351.97L72.4739 361.189C72.5941 360.829 72.7442 360.478 72.9244 360.138C73.1046 359.778 73.3048 359.417 73.525 359.057L77.489 352.12C77.7692 351.68 78.0595 351.359 78.3598 351.159C78.6802 350.959 79.0705 350.859 79.531 350.859H88.0595L78.0295 365.483L88.4799 382ZM117.371 362.691C117.371 361.95 117.271 361.229 117.07 360.529C116.89 359.828 116.58 359.207 116.139 358.667C115.719 358.106 115.158 357.656 114.458 357.315C113.757 356.975 112.906 356.805 111.905 356.805C110.143 356.805 108.762 357.315 107.761 358.336C106.76 359.337 106.099 360.789 105.779 362.691H117.371ZM105.659 368.096C105.959 370.699 106.75 372.591 108.031 373.772C109.313 374.933 110.964 375.514 112.986 375.514C114.067 375.514 114.998 375.383 115.779 375.123C116.56 374.863 117.251 374.573 117.851 374.252C118.472 373.932 119.032 373.642 119.533 373.381C120.053 373.121 120.594 372.991 121.154 372.991C121.895 372.991 122.456 373.261 122.836 373.802L125.539 377.135C124.578 378.236 123.537 379.137 122.416 379.838C121.315 380.519 120.173 381.059 118.992 381.459C117.831 381.84 116.66 382.1 115.479 382.24C114.318 382.4 113.207 382.48 112.145 382.48C109.963 382.48 107.911 382.13 105.989 381.429C104.087 380.709 102.416 379.648 100.974 378.246C99.5529 376.845 98.4217 375.103 97.5809 373.021C96.7601 370.939 96.3497 368.517 96.3497 365.754C96.3497 363.672 96.7 361.7 97.4007 359.838C98.1214 357.976 99.1425 356.344 100.464 354.943C101.805 353.542 103.417 352.43 105.299 351.61C107.201 350.789 109.343 350.378 111.725 350.378C113.787 350.378 115.669 350.699 117.371 351.339C119.092 351.98 120.564 352.911 121.785 354.132C123.026 355.353 123.987 356.855 124.668 358.637C125.369 360.398 125.719 362.4 125.719 364.643C125.719 365.343 125.689 365.914 125.629 366.354C125.569 366.795 125.459 367.145 125.299 367.405C125.138 367.666 124.918 367.846 124.638 367.946C124.378 368.046 124.037 368.096 123.617 368.096H105.659ZM161.368 358.246C161.088 358.587 160.818 358.857 160.558 359.057C160.297 359.257 159.927 359.357 159.446 359.357C158.986 359.357 158.566 359.247 158.185 359.027C157.825 358.807 157.414 358.567 156.954 358.306C156.494 358.026 155.953 357.776 155.332 357.556C154.712 357.335 153.941 357.225 153.02 357.225C151.879 357.225 150.888 357.435 150.047 357.856C149.226 358.276 148.546 358.877 148.005 359.658C147.464 360.438 147.064 361.399 146.804 362.541C146.544 363.662 146.413 364.933 146.413 366.354C146.413 369.337 146.984 371.63 148.125 373.231C149.286 374.833 150.878 375.634 152.9 375.634C153.981 375.634 154.832 375.504 155.452 375.243C156.093 374.963 156.634 374.663 157.074 374.342C157.515 374.002 157.915 373.692 158.275 373.411C158.656 373.131 159.126 372.991 159.687 372.991C160.427 372.991 160.988 373.261 161.368 373.802L164.071 377.135C163.11 378.236 162.099 379.137 161.038 379.838C159.977 380.519 158.886 381.059 157.765 381.459C156.664 381.84 155.553 382.1 154.431 382.24C153.31 382.4 152.219 382.48 151.158 382.48C149.256 382.48 147.434 382.12 145.693 381.399C143.971 380.679 142.449 379.638 141.128 378.276C139.827 376.895 138.786 375.203 138.005 373.201C137.244 371.199 136.864 368.917 136.864 366.354C136.864 364.112 137.194 362.02 137.855 360.078C138.536 358.116 139.527 356.424 140.828 355.003C142.149 353.562 143.771 352.43 145.693 351.61C147.635 350.789 149.877 350.378 152.419 350.378C154.862 350.378 157.004 350.769 158.846 351.55C160.688 352.33 162.349 353.471 163.831 354.973L161.368 358.246ZM192.319 359.718C194.962 359.718 196.864 359.087 198.025 357.826C199.186 356.565 199.766 354.803 199.766 352.541C199.766 351.54 199.616 350.629 199.316 349.808C199.016 348.987 198.555 348.286 197.935 347.706C197.334 347.105 196.563 346.645 195.622 346.324C194.701 346.004 193.6 345.844 192.319 345.844H187.034V359.718H192.319ZM192.319 338.246C195.402 338.246 198.045 338.617 200.247 339.357C202.469 340.078 204.291 341.079 205.712 342.36C207.154 343.642 208.215 345.153 208.896 346.895C209.576 348.637 209.917 350.519 209.917 352.541C209.917 354.723 209.566 356.725 208.866 358.547C208.165 360.368 207.094 361.93 205.652 363.231C204.211 364.533 202.379 365.554 200.157 366.294C197.955 367.015 195.342 367.375 192.319 367.375H187.034V382H176.884V338.246H192.319ZM231.403 337.045V382H222.093V337.045H231.403ZM261.869 369.327C260.007 369.407 258.476 369.568 257.274 369.808C256.073 370.048 255.122 370.348 254.421 370.709C253.721 371.069 253.23 371.479 252.95 371.94C252.69 372.4 252.56 372.901 252.56 373.441C252.56 374.503 252.85 375.253 253.431 375.694C254.011 376.114 254.862 376.324 255.983 376.324C257.184 376.324 258.235 376.114 259.136 375.694C260.037 375.273 260.948 374.593 261.869 373.652V369.327ZM245.112 355.183C246.994 353.522 249.076 352.29 251.358 351.49C253.661 350.669 256.123 350.258 258.746 350.258C260.628 350.258 262.319 350.569 263.821 351.189C265.342 351.79 266.624 352.641 267.665 353.742C268.726 354.823 269.537 356.114 270.097 357.616C270.658 359.117 270.938 360.759 270.938 362.541V382H266.674C265.793 382 265.122 381.88 264.662 381.64C264.221 381.399 263.851 380.899 263.551 380.138L262.89 378.426C262.109 379.087 261.358 379.668 260.638 380.168C259.917 380.669 259.166 381.099 258.385 381.459C257.625 381.8 256.804 382.05 255.923 382.21C255.062 382.39 254.101 382.48 253.04 382.48C251.619 382.48 250.327 382.3 249.166 381.94C248.005 381.56 247.014 381.009 246.193 380.288C245.392 379.568 244.772 378.677 244.331 377.616C243.891 376.535 243.671 375.293 243.671 373.892C243.671 372.771 243.951 371.64 244.512 370.499C245.072 369.337 246.043 368.286 247.425 367.345C248.806 366.384 250.668 365.584 253.01 364.943C255.352 364.302 258.305 363.942 261.869 363.862V362.541C261.869 360.719 261.489 359.407 260.728 358.607C259.987 357.786 258.926 357.375 257.545 357.375C256.444 357.375 255.543 357.496 254.842 357.736C254.141 357.976 253.511 358.246 252.95 358.547C252.409 358.847 251.879 359.117 251.358 359.357C250.838 359.598 250.217 359.718 249.497 359.718C248.856 359.718 248.315 359.558 247.875 359.237C247.435 358.917 247.074 358.537 246.794 358.096L245.112 355.183ZM307.88 358.246C307.599 358.587 307.329 358.857 307.069 359.057C306.809 359.257 306.438 359.357 305.958 359.357C305.497 359.357 305.077 359.247 304.696 359.027C304.336 358.807 303.926 358.567 303.465 358.306C303.005 358.026 302.464 357.776 301.844 357.556C301.223 357.335 300.452 357.225 299.531 357.225C298.39 357.225 297.399 357.435 296.558 357.856C295.737 358.276 295.057 358.877 294.516 359.658C293.976 360.438 293.575 361.399 293.315 362.541C293.055 363.662 292.925 364.933 292.925 366.354C292.925 369.337 293.495 371.63 294.636 373.231C295.798 374.833 297.389 375.634 299.411 375.634C300.492 375.634 301.343 375.504 301.964 375.243C302.604 374.963 303.145 374.663 303.585 374.342C304.026 374.002 304.426 373.692 304.786 373.411C305.167 373.131 305.637 372.991 306.198 372.991C306.939 372.991 307.499 373.261 307.88 373.802L310.582 377.135C309.621 378.236 308.61 379.137 307.549 379.838C306.488 380.519 305.397 381.059 304.276 381.459C303.175 381.84 302.064 382.1 300.943 382.24C299.822 382.4 298.73 382.48 297.669 382.48C295.767 382.48 293.946 382.12 292.204 381.399C290.482 380.679 288.961 379.638 287.639 378.276C286.338 376.895 285.297 375.203 284.516 373.201C283.755 371.199 283.375 368.917 283.375 366.354C283.375 364.112 283.705 362.02 284.366 360.078C285.047 358.116 286.038 356.424 287.339 355.003C288.66 353.562 290.282 352.43 292.204 351.61C294.146 350.789 296.388 350.378 298.931 350.378C301.373 350.378 303.515 350.769 305.357 351.55C307.199 352.33 308.861 353.471 310.342 354.973L307.88 358.246ZM341.155 362.691C341.155 361.95 341.055 361.229 340.855 360.529C340.675 359.828 340.364 359.207 339.924 358.667C339.504 358.106 338.943 357.656 338.242 357.315C337.542 356.975 336.691 356.805 335.69 356.805C333.928 356.805 332.547 357.315 331.546 358.336C330.545 359.337 329.884 360.789 329.564 362.691H341.155ZM329.443 368.096C329.744 370.699 330.535 372.591 331.816 373.772C333.097 374.933 334.749 375.514 336.771 375.514C337.852 375.514 338.783 375.383 339.564 375.123C340.344 374.863 341.035 374.573 341.636 374.252C342.256 373.932 342.817 373.642 343.317 373.381C343.838 373.121 344.378 372.991 344.939 372.991C345.68 372.991 346.24 373.261 346.621 373.802L349.323 377.135C348.362 378.236 347.321 379.137 346.2 379.838C345.099 380.519 343.958 381.059 342.777 381.459C341.616 381.84 340.444 382.1 339.263 382.24C338.102 382.4 336.991 382.48 335.93 382.48C333.748 382.48 331.696 382.13 329.774 381.429C327.872 380.709 326.2 379.648 324.759 378.246C323.337 376.845 322.206 375.103 321.365 373.021C320.545 370.939 320.134 368.517 320.134 365.754C320.134 363.672 320.485 361.7 321.185 359.838C321.906 357.976 322.927 356.344 324.248 354.943C325.59 353.542 327.201 352.43 329.083 351.61C330.985 350.789 333.127 350.378 335.51 350.378C337.572 350.378 339.453 350.699 341.155 351.339C342.877 351.98 344.348 352.911 345.57 354.132C346.811 355.353 347.772 356.855 348.452 358.637C349.153 360.398 349.504 362.4 349.504 364.643C349.504 365.343 349.474 365.914 349.413 366.354C349.353 366.795 349.243 367.145 349.083 367.405C348.923 367.666 348.703 367.846 348.422 367.946C348.162 368.046 347.822 368.096 347.401 368.096H329.443ZM362.27 382V350.859H368.036C369.197 350.859 369.958 351.379 370.318 352.42L370.829 354.102C371.349 353.562 371.89 353.071 372.45 352.631C373.011 352.17 373.611 351.78 374.252 351.459C374.913 351.119 375.613 350.859 376.354 350.679C377.115 350.479 377.946 350.378 378.847 350.378C380.728 350.378 382.28 350.869 383.501 351.85C384.742 352.811 385.683 354.102 386.324 355.724C386.845 354.763 387.475 353.942 388.216 353.261C388.977 352.581 389.788 352.03 390.648 351.61C391.529 351.189 392.45 350.879 393.411 350.679C394.392 350.479 395.363 350.378 396.324 350.378C398.106 350.378 399.687 350.649 401.069 351.189C402.45 351.71 403.601 352.481 404.522 353.502C405.463 354.503 406.174 355.744 406.654 357.225C407.135 358.687 407.375 360.348 407.375 362.21V382H398.066V362.21C398.066 358.987 396.684 357.375 393.922 357.375C392.66 357.375 391.609 357.796 390.769 358.637C389.948 359.457 389.537 360.649 389.537 362.21V382H380.228V362.21C380.228 360.428 379.878 359.177 379.177 358.456C378.476 357.736 377.445 357.375 376.084 357.375C375.243 357.375 374.442 357.566 373.681 357.946C372.941 358.326 372.24 358.837 371.579 359.477V382H362.27ZM440.834 362.691C440.834 361.95 440.734 361.229 440.533 360.529C440.353 359.828 440.043 359.207 439.602 358.667C439.182 358.106 438.621 357.656 437.921 357.315C437.22 356.975 436.369 356.805 435.368 356.805C433.606 356.805 432.225 357.315 431.224 358.336C430.223 359.337 429.562 360.789 429.242 362.691H440.834ZM429.122 368.096C429.422 370.699 430.213 372.591 431.494 373.772C432.776 374.933 434.427 375.514 436.449 375.514C437.53 375.514 438.461 375.383 439.242 375.123C440.023 374.863 440.714 374.573 441.314 374.252C441.935 373.932 442.495 373.642 442.996 373.381C443.516 373.121 444.057 372.991 444.617 372.991C445.358 372.991 445.919 373.261 446.299 373.802L449.002 377.135C448.041 378.236 447 379.137 445.879 379.838C444.778 380.519 443.636 381.059 442.455 381.459C441.294 381.84 440.123 382.1 438.942 382.24C437.781 382.4 436.669 382.48 435.608 382.48C433.426 382.48 431.374 382.13 429.452 381.429C427.55 380.709 425.879 379.648 424.437 378.246C423.016 376.845 421.885 375.103 421.044 373.021C420.223 370.939 419.813 368.517 419.813 365.754C419.813 363.672 420.163 361.7 420.864 359.838C421.584 357.976 422.605 356.344 423.927 354.943C425.268 353.542 426.88 352.43 428.762 351.61C430.663 350.789 432.806 350.378 435.188 350.378C437.25 350.378 439.132 350.699 440.834 351.339C442.555 351.98 444.027 352.911 445.248 354.132C446.489 355.353 447.45 356.855 448.131 358.637C448.832 360.398 449.182 362.4 449.182 364.643C449.182 365.343 449.152 365.914 449.092 366.354C449.032 366.795 448.922 367.145 448.762 367.405C448.601 367.666 448.381 367.846 448.101 367.946C447.841 368.046 447.5 368.096 447.08 368.096H429.122ZM470.537 354.222C471.138 353.662 471.758 353.141 472.399 352.661C473.04 352.18 473.72 351.78 474.441 351.459C475.182 351.119 475.973 350.859 476.813 350.679C477.674 350.479 478.605 350.378 479.606 350.378C481.308 350.378 482.809 350.679 484.111 351.279C485.432 351.86 486.543 352.681 487.444 353.742C488.345 354.783 489.026 356.034 489.486 357.496C489.946 358.937 490.177 360.509 490.177 362.21V382H480.867V362.21C480.867 360.689 480.517 359.508 479.816 358.667C479.116 357.806 478.085 357.375 476.723 357.375C475.702 357.375 474.741 357.596 473.84 358.036C472.96 358.456 472.099 359.037 471.258 359.778V382H461.948V350.859H467.714C468.875 350.859 469.636 351.379 469.997 352.42L470.537 354.222ZM515.04 382.48C513.559 382.48 512.247 382.27 511.106 381.85C509.985 381.409 509.034 380.799 508.253 380.018C507.493 379.217 506.912 378.256 506.512 377.135C506.111 376.014 505.911 374.763 505.911 373.381V357.285H503.268C502.788 357.285 502.377 357.135 502.037 356.835C501.697 356.515 501.527 356.054 501.527 355.453V351.82L506.482 350.859L508.313 343.261C508.554 342.3 509.234 341.82 510.355 341.82H515.22V350.919H522.938V357.285H515.22V372.751C515.22 373.471 515.39 374.072 515.731 374.553C516.091 375.013 516.602 375.243 517.262 375.243C517.603 375.243 517.883 375.213 518.103 375.153C518.343 375.073 518.544 374.993 518.704 374.913C518.884 374.813 519.044 374.733 519.184 374.673C519.344 374.593 519.525 374.553 519.725 374.553C520.005 374.553 520.225 374.623 520.385 374.763C520.566 374.883 520.746 375.083 520.926 375.363L523.749 379.778C522.548 380.679 521.196 381.359 519.695 381.82C518.193 382.26 516.642 382.48 515.04 382.48Z" fill="#383838"/>
<path d="M0 52C0 23.2812 23.2812 0 52 0H537V254C537 287.689 509.689 315 476 315H0V52Z" fill="#6A67CE"/>
<path d="M0 52C0 23.2812 23.2812 0 52 0H537V254C537 287.689 509.689 315 476 315H0V52Z" stroke="black"/>
<path d="M0 61C0 27.3106 27.3106 0 61 0H537V254C537 287.689 509.689 315 476 315H0V61Z" fill="url(#paint0_linear_177_4)"/>
<path d="M0 61C0 27.3106 27.3106 0 61 0H537V254C537 287.689 509.689 315 476 315H0V61Z" stroke="black"/>
<path d="M224.85 45.77H57.53C46.1916 45.77 37 54.9616 37 66.3V69.91C37 81.2484 46.1916 90.44 57.53 90.44H224.85C236.188 90.44 245.38 81.2484 245.38 69.91V66.3C245.38 54.9616 236.188 45.77 224.85 45.77Z" fill="url(#paint1_linear_177_4)"/>
<path d="M224.85 134.12H146.94C135.602 134.12 126.41 143.312 126.41 154.65V158.26C126.41 169.598 135.602 178.79 146.94 178.79H224.85C236.188 178.79 245.38 169.598 245.38 158.26V154.65C245.38 143.312 236.188 134.12 224.85 134.12Z" fill="url(#paint2_linear_177_4)"/>
<path d="M224.85 223.99H194.43C183.091 223.99 173.9 233.182 173.9 244.52V248.13C173.9 259.468 183.091 268.66 194.43 268.66H224.85C236.188 268.66 245.38 259.468 245.38 248.13V244.52C245.38 233.182 236.188 223.99 224.85 223.99Z" fill="url(#paint3_linear_177_4)"/>
<path d="M500.76 127.7C500.76 154.22 493.957 174.66 480.35 189.02C466.743 203.38 447.32 210.56 422.08 210.56H327.86V249.16C327.295 254.861 324.567 260.129 320.236 263.879C315.905 267.629 310.301 269.577 304.578 269.321C298.854 269.064 293.447 266.624 289.468 262.502C285.49 258.379 283.243 252.889 283.19 247.16V186.16C283.19 173.88 292.41 163.92 303.78 163.92C304.33 163.92 304.87 163.92 305.41 163.99H379.41H408.62C422.46 163.99 432.52 161.053 438.8 155.18C445.08 149.307 448.227 139.857 448.24 126.83C448.24 114.623 445.157 105.377 438.99 99.09C432.823 92.8033 423.64 89.6633 411.44 89.67H304.03C298.329 89.1053 293.061 86.3766 289.311 82.0457C285.561 77.7147 283.613 72.1109 283.869 66.3876C284.126 60.6643 286.566 55.2569 290.688 51.2784C294.811 47.2999 300.301 45.053 306.03 45H418.59C445.583 45 466.023 52 479.91 66C493.797 80 500.747 100.567 500.76 127.7Z" fill="url(#paint4_linear_177_4)"/>
<defs>
<linearGradient id="paint0_linear_177_4" x1="268.5" y1="0" x2="268.5" y2="315" gradientUnits="userSpaceOnUse">
<stop stop-color="#6133A6"/>
<stop offset="1" stop-color="#685EC7"/>
</linearGradient>
<linearGradient id="paint1_linear_177_4" x1="141.19" y1="45.77" x2="141.19" y2="90.44" gradientUnits="userSpaceOnUse">
<stop stop-color="white"/>
<stop offset="0.572917" stop-color="#F7F5F2"/>
</linearGradient>
<linearGradient id="paint2_linear_177_4" x1="185.895" y1="134.12" x2="185.895" y2="178.79" gradientUnits="userSpaceOnUse">
<stop stop-color="white"/>
<stop offset="0.572917" stop-color="#F7F5F2"/>
</linearGradient>
<linearGradient id="paint3_linear_177_4" x1="209.64" y1="223.99" x2="209.64" y2="268.66" gradientUnits="userSpaceOnUse">
<stop stop-color="white"/>
<stop offset="0.572917" stop-color="#F7F5F2"/>
</linearGradient>
<linearGradient id="paint4_linear_177_4" x1="391.975" y1="45" x2="391.975" y2="269.343" gradientUnits="userSpaceOnUse">
<stop stop-color="white"/>
<stop offset="0.572917" stop-color="#F7F5F2"/>
</linearGradient>
</defs>
</svg>
