<svg width="231" height="194" viewBox="0 0 231 194" fill="none" xmlns="http://www.w3.org/2000/svg">
<path d="M207.357 0H22.6619C10.1461 0 0 10.0943 0 22.5462V26.5107C0 38.9627 10.1461 49.0569 22.6619 49.0569H207.357C219.872 49.0569 230.019 38.9627 230.019 26.5107V22.5462C230.019 10.0943 219.872 0 207.357 0Z" fill="white"/>
<path d="M207.851 72H122.493C110.07 72 100 82.0943 100 94.5462V98.5107C100 110.963 110.07 121.057 122.493 121.057H207.851C220.274 121.057 230.344 110.963 230.344 98.5107V94.5462C230.344 82.0943 220.274 72 207.851 72Z" fill="white"/>
<path d="M207.744 144H174.462C162.057 144 152 154.094 152 166.546V170.511C152 182.963 162.057 193.057 174.462 193.057H207.744C220.15 193.057 230.206 182.963 230.206 170.511V166.546C230.206 154.094 220.15 144 207.744 144Z" fill="white"/>
</svg>
