<svg width="513" height="512" viewBox="0 0 513 512" fill="none" xmlns="http://www.w3.org/2000/svg">
<path fill-rule="evenodd" clip-rule="evenodd" d="M236.089 0.298118C234.439 0.527118 228.814 1.20112 223.589 1.79612C168.954 8.01112 115.062 34.4391 74.687 74.8141C35.102 114.398 11.306 161.826 1.878 219.929C-0.473 234.42 -0.473 277.012 1.878 291.503C8.311 331.144 20.912 364.669 40.721 394.835C82.751 458.844 146.841 499.159 223.589 509.867C236.076 511.609 275.102 511.609 287.589 509.867C327.606 504.284 365.742 490.13 396.55 469.426C458.522 427.779 498.021 365.522 509.098 292.028C509.912 286.632 510.58 280.105 510.583 277.525C510.586 274.945 511.039 272.556 511.589 272.216C512.192 271.843 512.589 264.853 512.589 254.598C512.589 243.519 512.241 237.813 511.589 238.216C510.976 238.595 510.587 236.975 510.583 234.025C510.58 231.38 509.912 224.8 509.098 219.404C498.021 145.91 458.522 83.6531 396.55 42.0061C366.507 21.8171 329.685 7.88312 291.089 2.10012C281.625 0.682118 242.537 -0.598882 236.089 0.298118ZM242.589 77.3471C227.566 80.2421 213.807 86.4621 202.479 95.4811C182.391 111.475 171.506 134.627 171.506 161.358C171.506 199.976 197.057 232.707 235.089 242.809C246.311 245.79 264.867 245.79 276.089 242.809C305.335 235.041 328.354 213.051 336.378 185.216C339.267 175.193 339.732 171.711 339.714 160.223C339.656 122.638 315.01 90.2391 278.418 79.6451C271.222 77.5621 248.905 76.1301 242.589 77.3471ZM0 255.716C0 265.341 0.15 269.279 0.334 264.466C0.517 259.654 0.517 251.778 0.334 246.966C0.15 242.154 0 246.091 0 255.716ZM194.738 287.895C190.695 288.402 183.635 290.077 179.05 291.618C146.289 302.627 123.581 331.912 120.923 366.582C119.73 382.142 125.066 393.246 138.926 404.048C165.451 424.721 195.6 437.558 230.089 442.863C240.373 444.445 270.744 444.451 281.089 442.873C315.179 437.675 346.467 424.261 372.667 403.612C387.483 391.935 392.099 380.652 389.635 362.135C384.338 322.331 354.564 292.65 315.089 287.822C304.149 286.484 205.521 286.544 194.738 287.895Z" fill="white"/>
</svg>
