<svg width="537" height="315" viewBox="0 0 537 315" fill="none" xmlns="http://www.w3.org/2000/svg">
<path d="M0 61C0 27.3106 27.3106 0 61 0H537V254C537 287.689 509.689 315 476 315H0V61Z" fill="url(#paint0_linear_179_6)"/>
<path d="M0 61C0 27.3106 27.3106 0 61 0H537V254C537 287.689 509.689 315 476 315H0V61Z" stroke="white"/>
<path d="M224.85 45.77H57.53C46.1916 45.77 37 54.9616 37 66.3V69.91C37 81.2484 46.1916 90.44 57.53 90.44H224.85C236.188 90.44 245.38 81.2484 245.38 69.91V66.3C245.38 54.9616 236.188 45.77 224.85 45.77Z" fill="url(#paint1_linear_179_6)"/>
<path d="M224.85 134.12H146.94C135.602 134.12 126.41 143.312 126.41 154.65V158.26C126.41 169.598 135.602 178.79 146.94 178.79H224.85C236.188 178.79 245.38 169.598 245.38 158.26V154.65C245.38 143.312 236.188 134.12 224.85 134.12Z" fill="url(#paint2_linear_179_6)"/>
<path d="M224.85 223.99H194.43C183.091 223.99 173.9 233.182 173.9 244.52V248.13C173.9 259.468 183.091 268.66 194.43 268.66H224.85C236.188 268.66 245.38 259.468 245.38 248.13V244.52C245.38 233.182 236.188 223.99 224.85 223.99Z" fill="url(#paint3_linear_179_6)"/>
<path d="M500.76 127.7C500.76 154.22 493.957 174.66 480.35 189.02C466.743 203.38 447.32 210.56 422.08 210.56H327.86V249.16C327.295 254.861 324.567 260.129 320.236 263.879C315.905 267.629 310.301 269.577 304.578 269.321C298.854 269.064 293.447 266.624 289.468 262.502C285.49 258.379 283.243 252.889 283.19 247.16V186.16C283.19 173.88 292.41 163.92 303.78 163.92C304.33 163.92 304.87 163.92 305.41 163.99H379.41H408.62C422.46 163.99 432.52 161.053 438.8 155.18C445.08 149.307 448.227 139.857 448.24 126.83C448.24 114.623 445.157 105.377 438.99 99.09C432.823 92.8033 423.64 89.6633 411.44 89.67H304.03C298.329 89.1053 293.061 86.3766 289.311 82.0457C285.561 77.7147 283.613 72.1109 283.869 66.3876C284.126 60.6643 286.566 55.2569 290.688 51.2784C294.811 47.2999 300.301 45.053 306.03 45H418.59C445.583 45 466.023 52 479.91 66C493.797 80 500.747 100.567 500.76 127.7Z" fill="url(#paint4_linear_179_6)"/>
<defs>
<linearGradient id="paint0_linear_179_6" x1="268.5" y1="0" x2="268.5" y2="315" gradientUnits="userSpaceOnUse">
<stop stop-color="#6133A6"/>
<stop offset="1" stop-color="#685EC7"/>
</linearGradient>
<linearGradient id="paint1_linear_179_6" x1="141.19" y1="45.77" x2="141.19" y2="90.44" gradientUnits="userSpaceOnUse">
<stop stop-color="white"/>
<stop offset="0.572917" stop-color="#F7F5F2"/>
</linearGradient>
<linearGradient id="paint2_linear_179_6" x1="185.895" y1="134.12" x2="185.895" y2="178.79" gradientUnits="userSpaceOnUse">
<stop stop-color="white"/>
<stop offset="0.572917" stop-color="#F7F5F2"/>
</linearGradient>
<linearGradient id="paint3_linear_179_6" x1="209.64" y1="223.99" x2="209.64" y2="268.66" gradientUnits="userSpaceOnUse">
<stop stop-color="white"/>
<stop offset="0.572917" stop-color="#F7F5F2"/>
</linearGradient>
<linearGradient id="paint4_linear_179_6" x1="391.975" y1="45" x2="391.975" y2="269.343" gradientUnits="userSpaceOnUse">
<stop stop-color="white"/>
<stop offset="0.572917" stop-color="#F7F5F2"/>
</linearGradient>
</defs>
</svg>
